<svg xmlns="http://www.w3.org/2000/svg" height="16" viewBox="0 0 0.8 0.64" width="16"><path fill="#C5C5C5" d="M0.18 0.6a0.18 0.18 0 0 1 -0.06 -0.35A0.2 0.2 0 0 1 0.32 0.04c0.074 0 0.139 0.04 0.173 0.1A0.119 0.119 0 0 1 0.56 0.12a0.12 0.12 0 0 1 0.112 0.163A0.16 0.16 0 0 1 0.64 0.6H0.18zm0.099 -0.209 0.1 0.1c0.012 0.012 0.031 0.012 0.042 0l0.1 -0.1a0.03 0.03 0 0 0 -0.042 -0.042l-0.049 0.049V0.23c0 -0.017 -0.013 -0.03 -0.03 -0.03s-0.03 0.013 -0.03 0.03v0.168l-0.049 -0.049a0.03 0.03 0 0 0 -0.042 0.042z"/></svg>