<svg width="28" height="28" viewBox="0 0 28 28" fill="none" xmlns="http://www.w3.org/2000/svg">
<path d="M12.2937 4.28049L10.5696 6.56098L12.2562 8.78446L13.9054 10.9794L10.5696 11.0649L7.23379 11.1505L6.10937 12.4903C5.50968 13.2314 3.86052 15.3124 2.51121 17.1368L0 20.472L1.79908 22.781L3.56067 25.09H14.0928H24.6249L26.274 22.895C27.1736 21.6977 27.8857 20.586 27.8857 20.415C27.8857 20.2439 25.5619 17.0512 22.7508 13.3169L17.616 6.56098L19.1902 4.48003C20.0522 3.36829 20.8393 2.34207 20.9143 2.19954C20.9892 2.08552 19.49 2 17.541 2H13.9803L12.2937 4.28049ZM17.8034 16.0535C19.565 18.391 21.0267 20.3294 21.0267 20.415C21.0267 20.472 17.9158 20.529 14.0928 20.529C10.2697 20.529 7.15883 20.472 7.15883 20.415C7.15883 20.3579 7.98341 19.2177 8.99539 17.9064C9.96989 16.6236 11.5066 14.5997 12.4061 13.4595C13.2682 12.2907 14.1303 11.464 14.2802 11.6066C14.4676 11.7206 16.0418 13.7445 17.8034 16.0535Z" fill="white"/>
</svg>
